<svg viewBox="0 0 1024 1024" version="1.1" xmlns="http://www.w3.org/2000/svg" width="64" height="64">
  <path d="M512 64C264.6 64 64 264.6 64 512s200.6 448 448 448 448-200.6 448-448S759.4 64 512 64z" fill="#FF6A00"/>
  <path d="M512 256c-141.4 0-256 114.6-256 256s114.6 256 256 256 256-114.6 256-256-114.6-256-256-256z m0 448c-106 0-192-86-192-192s86-192 192-192 192 86 192 192-86 192-192 192z" fill="#FFFFFF"/>
  <path d="M512 384c-70.7 0-128 57.3-128 128s57.3 128 128 128 128-57.3 128-128-57.3-128-128-128z" fill="#FFFFFF"/>
</svg>