<svg viewBox="0 0 1024 1024" version="1.1" xmlns="http://www.w3.org/2000/svg" width="64" height="64">
  <rect x="64" y="64" width="896" height="896" rx="128" fill="#4D6BFE"/>
  <path d="M320 512c0-106 86-192 192-192v-64c-141.4 0-256 114.6-256 256s114.6 256 256 256v-64c-106 0-192-86-192-192z" fill="#FFFFFF"/>
  <path d="M512 320c106 0 192 86 192 192s-86 192-192 192v64c141.4 0 256-114.6 256-256s-114.6-256-256-256v64z" fill="#FFFFFF" opacity="0.6"/>
  <circle cx="512" cy="512" r="64" fill="#FFFFFF"/>
</svg>